<?xml version="1.0" encoding="UTF-8"?>
<!DOCTYPE svg PUBLIC "-//W3C//DTD SVG 1.1//EN" "http://www.w3.org/Graphics/SVG/1.1/DTD/svg11.dtd">
<!-- Creator: CorelDRAW X6 -->
<svg xmlns="http://www.w3.org/2000/svg" xml:space="preserve" width="84.6666mm" height="84.6666mm" version="1.1" style="shape-rendering:geometricPrecision; text-rendering:geometricPrecision; image-rendering:optimizeQuality; fill-rule:evenodd; clip-rule:evenodd"
viewBox="0 0 8467 8467"
 xmlns:xlink="http://www.w3.org/1999/xlink">
 <defs>
  <style type="text/css">
   <![CDATA[
    .fil2 {fill:#08ACE4}
    .fil1 {fill:#0C506C}
    .fil0 {fill:#73BFDC}
    .fil3 {fill:#FBFBFB}
   ]]>
  </style>
 </defs>
 <g id="Layer_x0020_2">
  <metadata id="CorelCorpID_0Corel-Layer"/>
  <path class="fil0" d="M3633 398c100,-45 212,-24 318,-28 343,6 690,-30 1025,60 229,31 443,125 664,188 250,77 473,217 691,357 607,394 1092,965 1408,1615 133,336 292,677 289,1045 14,69 35,138 33,209 -2,259 0,517 0,776 -36,241 -67,486 -151,717 -66,174 -102,358 -184,526 -254,513 -608,980 -1056,1339 -429,362 -944,616 -1481,770 -180,24 -358,54 -537,87 -291,4 -582,4 -872,0 -167,-35 -338,-39 -501,-93 -119,-48 -254,-32 -370,-87 -409,-163 -808,-367 -1149,-648 -884,-698 -1444,-1800 -1460,-2927 -19,-623 125,-1246 401,-1806 194,-345 405,-687 692,-962 471,-492 1074,-855 1726,-1049 173,-18 338,-78 513,-87z"/>
  <path class="fil1" d="M2643 1054c800,-398 1753,-472 2605,-202 716,224 1363,677 1798,1290 -127,-8 -273,-2 -361,-111 -493,-546 -1186,-893 -1911,-994 -719,-95 -1475,-25 -2133,297 -371,177 -695,439 -976,737 -72,-3 -144,-6 -216,-13l-33 -19c336,-407 749,-755 1227,-984z"/>
  <path class="fil2" d="M2642 1333c657,-322 1414,-392 2133,-297 726,101 1419,448 1911,994 87,110 234,104 361,111 679,922 871,2183 472,3260 -366,1034 -1247,1867 -2301,2172 -1088,338 -2331,96 -3219,-616 -733,-572 -1216,-1449 -1309,-2373 -97,-895 170,-1823 727,-2531l32 3c72,7 144,10 216,13 282,-298 605,-560 976,-737z"/>
  <path class="fil3" d="M2482 2168c33,-44 100,-93 152,-45 58,68 96,150 141,226 407,702 810,1406 1226,2103 12,-21 36,-64 48,-85 104,-175 216,-345 319,-520 -136,-144 -178,-348 -120,-537 29,-106 90,-199 144,-294 159,-265 313,-533 471,-799 61,-134 316,-2 231,123 -179,315 -361,628 -538,944 -28,39 -31,87 -14,132 52,41 114,87 184,67 46,-21 66,-71 93,-110 173,-302 350,-601 522,-904 42,-184 344,-58 289,92 -177,318 -361,633 -541,949 -23,50 -71,101 -55,160 32,87 181,157 238,57 209,-332 386,-684 601,-1012 103,-29 256,86 179,194 -136,240 -276,478 -411,718 -78,136 -151,278 -262,390 -120,101 -269,156 -427,143 -182,331 -363,663 -546,994 209,368 426,731 634,1099 65,110 98,270 -3,370 -138,129 -339,231 -530,161l-8 -5c-165,-117 -277,-291 -356,-474 -55,-127 -100,-259 -147,-388 -147,229 -261,477 -402,710 -93,159 -299,214 -470,163 -187,-71 -306,-289 -244,-483 236,-440 516,-855 768,-1286 38,-51 6,-112 -6,-165 -114,-271 -441,-275 -655,-423 -84,-78 -171,-154 -247,-240 -351,-440 -469,-1033 -395,-1584 25,-151 41,-315 139,-439z"/>
  <path class="fil1" d="M2775 2350c55,-1 122,2 142,64 219,379 438,758 658,1137 160,271 312,547 474,817 -12,21 -36,64 -48,85 -416,-696 -819,-1401 -1226,-2103z"/>
  <path class="fil1" d="M5145 2390c73,6 141,28 195,79 -172,303 -350,602 -522,904 -27,39 -48,89 -93,110 -70,20 -132,-25 -184,-67 206,-339 390,-692 604,-1026z"/>
  <path class="fil1" d="M5645 2602c89,6 173,39 227,113 -215,328 -392,680 -601,1012 -56,100 -206,30 -238,-57 19,-75 66,-139 103,-206 172,-286 326,-582 509,-862z"/>
  <path class="fil1" d="M6072 2999c78,-136 319,30 219,154 -215,358 -406,732 -645,1075 -121,122 -284,186 -456,172 -178,332 -377,654 -538,994 184,362 406,704 607,1057 70,115 128,278 33,395 -123,129 -308,230 -490,187 -133,-30 -217,-147 -296,-249 191,70 392,-31 530,-161 102,-100 68,-259 3,-370 -208,-368 -425,-731 -634,-1099 182,-331 363,-663 546,-994 158,13 307,-42 427,-143 46,-18 111,-4 135,-59 192,-316 369,-642 560,-960z"/>
  <path class="fil0" d="M3922 3352c95,-64 219,-81 326,-41 -58,189 -16,392 120,537 -104,175 -216,345 -319,520 -162,-270 -314,-545 -474,-817 108,-78 234,-127 347,-199z"/>
  <path class="fil0" d="M2738 4191c76,86 163,162 247,240 154,223 406,341 655,423 12,54 44,114 6,165 -252,431 -532,846 -768,1286 -135,-143 -320,-248 -393,-440 -41,-90 -150,-148 -141,-256 1,-225 -5,-450 4,-674 82,-197 187,-384 285,-573 26,-63 46,-131 105,-172z"/>
  <path class="fil0" d="M5190 4399c172,14 335,-50 456,-172l41 -34c62,109 74,240 146,343 65,102 145,194 200,303 37,115 52,235 79,352 -60,128 24,256 12,387 -41,108 -93,217 -174,302 -107,106 -170,259 -313,325 -139,63 -235,191 -378,245 -201,-353 -423,-695 -607,-1057 161,-340 361,-663 538,-994z"/>
  <path class="fil1" d="M2985 4431c215,149 542,153 655,423 -250,-82 -501,-200 -655,-423z"/>
  <path class="fil1" d="M3592 6626c141,-233 255,-480 402,-710 47,130 92,261 147,388 -91,166 -179,333 -269,499 -83,198 -320,290 -519,216 -109,-36 -183,-131 -231,-231 171,52 377,-4 470,-163z"/>
  <path class="fil0" d="M4141 6304c79,183 191,357 356,474 -177,138 -430,101 -625,25 90,-166 179,-333 269,-499z"/>
 </g>
</svg>
