<?xml version="1.0" encoding="UTF-8"?>
<!DOCTYPE svg PUBLIC "-//W3C//DTD SVG 1.1//EN" "http://www.w3.org/Graphics/SVG/1.1/DTD/svg11.dtd">
<!-- Creator: CorelDRAW X6 -->
<svg xmlns="http://www.w3.org/2000/svg" xml:space="preserve" width="84.6666mm" height="84.6666mm" version="1.1" style="shape-rendering:geometricPrecision; text-rendering:geometricPrecision; image-rendering:optimizeQuality; fill-rule:evenodd; clip-rule:evenodd"
viewBox="0 0 8467 8467"
 xmlns:xlink="http://www.w3.org/1999/xlink">
 <defs>
  <style type="text/css">
   <![CDATA[
    .str1 {stroke:#0C506C;stroke-width:20}
    .str0 {stroke:#6CC0DF;stroke-width:20}
    .str2 {stroke:#FBFBFB;stroke-width:20}
    .fil2 {fill:#08ACE4}
    .fil1 {fill:#0C506C}
    .fil3 {fill:#0E5878}
    .fil4 {fill:#6CC0DF}
    .fil0 {fill:#73BFDC}
    .fil5 {fill:#FBFBFB}
   ]]>
  </style>
 </defs>
 <g id="Layer_x0020_2">
  <metadata id="CorelCorpID_0Corel-Layer"/>
  <path class="fil0" d="M3633 398c100,-45 212,-24 318,-28 343,6 690,-30 1025,60 229,31 443,125 664,188 250,77 473,217 691,357 607,394 1092,965 1408,1615 133,336 292,677 289,1045 14,69 35,138 33,209 -2,259 0,517 0,776 -36,241 -67,486 -151,717 -66,174 -102,358 -184,526 -254,513 -608,980 -1056,1339 -429,362 -944,616 -1481,770 -180,24 -358,54 -537,87 -291,4 -582,4 -872,0 -167,-35 -338,-39 -501,-93 -119,-48 -254,-32 -370,-87 -409,-163 -808,-367 -1149,-648 -884,-698 -1444,-1800 -1460,-2927 -19,-623 125,-1246 401,-1806 194,-345 405,-687 692,-962 471,-492 1074,-855 1726,-1049 173,-18 338,-78 513,-87z"/>
  <path class="fil1" d="M2643 1054c800,-398 1753,-472 2605,-202 716,224 1363,677 1798,1290 -127,-8 -273,-2 -361,-111 -493,-546 -1186,-893 -1911,-994 -719,-95 -1475,-25 -2133,297 -371,177 -695,439 -976,737 -72,-3 -144,-6 -216,-13l-33 -19c336,-407 749,-755 1227,-984z"/>
  <path class="fil2" d="M2642 1333c657,-322 1414,-392 2133,-297 726,101 1419,448 1911,994 87,110 234,104 361,111 679,922 871,2183 472,3260 -366,1034 -1247,1867 -2301,2172 -1088,338 -2331,96 -3219,-616 -733,-572 -1216,-1449 -1309,-2373 -97,-895 170,-1823 727,-2531l32 3c72,7 144,10 216,13 282,-298 605,-560 976,-737z"/>
  <path class="fil0" d="M3922 3352c95,-64 219,-81 326,-41 -58,189 -16,392 120,537 -104,175 -216,345 -319,520 -162,-270 -314,-545 -474,-817 108,-78 234,-127 347,-199z"/>
  <path class="fil0" d="M2738 4191c76,86 163,162 247,240 154,223 406,341 655,423 12,54 44,114 6,165 -252,431 -532,846 -768,1286 -135,-143 -320,-248 -393,-440 -41,-90 -150,-148 -141,-256 1,-225 -5,-450 4,-674 82,-197 187,-384 285,-573 26,-63 46,-131 105,-172z"/>
  <path class="fil0" d="M5190 4399c172,14 335,-50 456,-172l41 -34c62,109 74,240 146,343 65,102 145,194 200,303 37,115 52,235 79,352 -60,128 24,256 12,387 -41,108 -93,217 -174,302 -107,106 -170,259 -313,325 -139,63 -235,191 -378,245 -201,-353 -423,-695 -607,-1057 161,-340 361,-663 538,-994z"/>
  <path class="fil1" d="M2985 4431c215,149 542,153 655,423 -250,-82 -501,-200 -655,-423z"/>
  <path class="fil0" d="M4141 6304c79,183 191,357 356,474 -177,138 -430,101 -625,25 90,-166 179,-333 269,-499z"/>
 </g>
 <g id="Layer_x0020_3">
  <metadata id="CorelCorpID_1Corel-Layer"/>
  <path class="fil3" d="M1117 2148c867,-1499 2926,-2104 4476,-1346 624,280 1163,757 1512,1346 -364,-18 -530,-386 -794,-580 -1228,-1095 -3305,-1056 -4494,82 -203,201 -383,489 -700,498z"/>
  <path class="fil4" d="M4866 4779c334,-24 671,-1 1007,0 258,-65 177,214 218,346 61,376 -105,781 -371,1040 -446,208 -785,777 -1326,701 -27,-2 -81,-8 -108,-11 -102,-53 -308,-54 -277,-212 123,-54 175,47 247,105 20,-55 41,-114 5,-167 15,-5 46,-14 61,-19 20,-417 -7,-835 11,-1252 260,-97 411,-295 533,-531z"/>
  <path class="fil4" d="M3753 437c1487,-189 3032,622 3753,1929 865,1441 590,3448 -653,4588 -1258,1329 -3499,1498 -4949,379 -1379,-967 -1990,-2906 -1324,-4468 500,-1312 1773,-2293 3174,-2427z"/>
  <path class="fil0" d="M3633 398c100,-45 212,-24 318,-28 343,6 690,-30 1025,60 229,31 443,125 664,188 250,77 473,217 691,357 607,394 1092,965 1408,1615 133,336 292,677 289,1045 14,69 35,138 33,209 -2,259 0,517 0,776 -36,241 -67,486 -151,717 -66,174 -102,358 -184,526 -254,513 -608,980 -1056,1339 -429,362 -944,616 -1481,770 -180,24 -358,54 -537,87 -291,4 -582,4 -872,0 -167,-35 -338,-39 -501,-93 -119,-48 -254,-32 -370,-87 -409,-163 -808,-367 -1149,-648 -884,-698 -1444,-1800 -1460,-2927 -19,-623 125,-1246 401,-1806 194,-345 405,-687 692,-962 471,-492 1074,-855 1726,-1049 173,-18 338,-78 513,-87z"/>
  <path class="fil1" d="M2643 1054c800,-398 1753,-472 2605,-202 716,224 1363,677 1798,1290 -127,-8 -273,-2 -361,-111 -493,-546 -1186,-893 -1911,-994 -719,-95 -1475,-25 -2133,297 -371,177 -695,439 -976,737 -72,-3 -144,-6 -216,-13l-33 -19c336,-407 749,-755 1227,-984z"/>
  <path class="fil2" d="M2642 1333c657,-322 1414,-392 2133,-297 726,101 1419,448 1911,994 87,110 234,104 361,111 679,922 871,2183 472,3260 -366,1034 -1247,1867 -2301,2172 -1088,338 -2331,96 -3219,-616 -733,-572 -1216,-1449 -1309,-2373 -97,-895 170,-1823 727,-2531l32 3c72,7 144,10 216,13 282,-298 605,-560 976,-737z"/>
  <path class="fil0" d="M3922 3352c95,-64 219,-81 326,-41 -58,189 -16,392 120,537 -104,175 -216,345 -319,520 -162,-270 -314,-545 -474,-817 108,-78 234,-127 347,-199z"/>
  <path class="fil0" d="M2738 4191c76,86 163,162 247,240 154,223 406,341 655,423 12,54 44,114 6,165 -252,431 -532,846 -768,1286 -135,-143 -320,-248 -393,-440 -41,-90 -150,-148 -141,-256 1,-225 -5,-450 4,-674 82,-197 187,-384 285,-573 26,-63 46,-131 105,-172z"/>
  <path class="fil0" d="M5190 4399c172,14 335,-50 456,-172l41 -34c62,109 74,240 146,343 65,102 145,194 200,303 37,115 52,235 79,352 -60,128 24,256 12,387 -41,108 -93,217 -174,302 -107,106 -170,259 -313,325 -139,63 -235,191 -378,245 -201,-353 -423,-695 -607,-1057 161,-340 361,-663 538,-994z"/>
  <path class="fil1" d="M2985 4431c215,149 542,153 655,423 -250,-82 -501,-200 -655,-423z"/>
  <path class="fil4 str0" d="M4472 2988c-160,-39 -229,-38 -300,-29 -71,10 -143,27 -260,66 -118,39 -281,98 -387,147 -106,49 -155,88 -219,155 -64,66 -143,159 -249,299 -105,140 -237,328 -330,450 -93,123 -149,180 -188,217 -39,36 -61,51 -72,58 -11,7 -11,7 -18,52 -7,45 -22,135 -48,233 -26,98 -63,205 -84,287 -21,82 -25,139 -17,215 9,77 30,173 49,261 19,88 34,168 55,243 21,76 48,147 85,217 37,70 84,139 119,184 35,45 57,67 100,98 43,31 107,70 164,133 58,63 109,149 151,211 42,61 73,97 116,136 43,39 98,81 159,118 61,36 127,66 217,94 90,27 205,52 338,66 133,14 285,17 402,17 116,0 196,-4 277,-18 81,-14 163,-38 234,-57 72,-19 134,-32 201,-61 68,-29 141,-74 219,-129 78,-55 160,-121 240,-182 80,-62 158,-119 228,-166 70,-47 133,-82 197,-132 64,-50 128,-116 187,-210 59,-94 114,-216 150,-343 36,-127 55,-259 66,-388 11,-129 14,-256 4,-347 -10,-91 -33,-146 -48,-186 -15,-40 -23,-65 -29,-111 -6,-47 -10,-115 -28,-163 -18,-48 -49,-75 -73,-97 -24,-22 -41,-37 -60,-56 -19,-19 -39,-40 -73,-80 -34,-40 -82,-100 -139,-178 -57,-78 -123,-176 -198,-280 -74,-104 -157,-215 -238,-307 -82,-92 -163,-164 -328,-240 -166,-76 -416,-156 -575,-195z"/>
  <g id="_817444592">
   <path class="fil1 str1" d="M3118 2362c144,170 333,490 430,672 97,182 104,226 35,295 -69,69 -214,163 -317,207 -104,44 -166,38 -204,75 -38,38 -50,119 -44,198 6,79 31,154 72,226 41,72 97,141 157,217 60,75 123,157 232,280 110,123 267,286 393,405 126,119 220,195 314,251 94,57 188,94 270,113 82,19 151,19 223,13 72,-6 148,-19 173,-41 25,-22 0,-53 -31,-88 -31,-35 -69,-72 -31,-157 38,-85 151,-217 239,-270 88,-53 151,-28 283,41 132,69 333,182 481,261 148,79 242,122 302,179 60,57 85,126 97,210 13,85 13,185 -22,276 -35,91 -104,173 -204,251 -100,79 -232,154 -421,201 -188,47 -433,66 -663,38 -229,-28 -443,-104 -631,-195 -188,-91 -352,-198 -518,-333 -166,-135 -336,-298 -537,-524 -201,-226 -433,-515 -597,-763 -163,-248 -258,-455 -308,-710 -50,-254 -57,-556 -28,-779 28,-223 91,-367 182,-481 91,-113 210,-195 320,-226 110,-31 210,-13 355,157z"/>
   <path class="fil5 str2" d="M3005 2275c143,167 329,484 425,663 96,180 102,223 34,291 -68,68 -211,161 -313,205 -102,43 -164,37 -201,74 -37,37 -50,118 -43,195 6,77 31,152 71,223 40,71 96,139 155,214 59,74 121,155 229,276 108,121 263,282 387,400 124,118 217,192 310,248 93,56 186,93 267,112 81,19 149,19 220,12 71,-6 146,-19 170,-40 25,-22 0,-53 -31,-87 -31,-34 -68,-71 -31,-155 37,-84 149,-214 236,-267 87,-53 149,-28 279,40 130,68 329,180 474,257 146,77 239,121 298,177 59,56 84,124 96,208 12,84 12,183 -22,273 -34,90 -102,170 -201,248 -99,77 -229,152 -415,198 -186,46 -428,65 -654,37 -226,-28 -437,-102 -623,-192 -186,-90 -347,-195 -511,-329 -164,-133 -332,-294 -530,-518 -198,-223 -428,-508 -589,-753 -161,-245 -254,-449 -304,-701 -50,-251 -56,-549 -28,-769 28,-220 90,-363 180,-474 90,-112 208,-192 316,-223 108,-31 208,-12 350,155z"/>
  </g>
 </g>
</svg>
