<?xml version="1.0" encoding="UTF-8"?>
<!DOCTYPE svg PUBLIC "-//W3C//DTD SVG 1.1//EN" "http://www.w3.org/Graphics/SVG/1.1/DTD/svg11.dtd">
<!-- Creator: CorelDRAW X6 -->
<svg xmlns="http://www.w3.org/2000/svg" xml:space="preserve" width="84.6666mm" height="84.6666mm" version="1.1" style="shape-rendering:geometricPrecision; text-rendering:geometricPrecision; image-rendering:optimizeQuality; fill-rule:evenodd; clip-rule:evenodd"
viewBox="0 0 8467 8467"
 xmlns:xlink="http://www.w3.org/1999/xlink">
 <defs>
  <style type="text/css">
   <![CDATA[
    .fil2 {fill:#08ACE4}
    .fil1 {fill:#0E5878}
    .fil0 {fill:#6CC0DF}
    .fil3 {fill:#FBFBFB}
   ]]>
  </style>
 </defs>
 <g id="Layer_x0020_1">
  <metadata id="CorelCorpID_0Corel-Layer"/>
  <path class="fil0" d="M3789 407c1487,-189 3032,622 3753,1929 865,1441 590,3448 -653,4588 -1258,1329 -3499,1498 -4949,379 -1379,-967 -1990,-2906 -1324,-4468 500,-1312 1773,-2293 3174,-2427z"/>
  <path class="fil1" d="M1204 2367c867,-1499 2926,-2104 4476,-1346 624,280 1163,757 1512,1346 -364,-18 -530,-386 -794,-580 -1228,-1095 -3305,-1056 -4494,82 -203,201 -383,489 -700,498z"/>
  <path class="fil2" d="M1904 1869c1189,-1138 3266,-1177 4494,-82 264,194 430,563 794,580 979,1478 561,3658 -899,4669 -1241,953 -3110,903 -4312,-92 -1368,-1041 -1724,-3145 -778,-4578 316,-9 497,-297 700,-498z"/>
  <path class="fil3" d="M3921 1722c-35,-75 -140,-217 127,-94 123,102 196,250 318,353 102,136 64,-240 9,-288 -148,-108 187,-122 172,-40 -139,149 -30,414 -72,608 -17,-1 -50,-3 -66,-5 -39,-7 -62,-33 -69,-80 -5,-53 -55,-76 -97,-96 -10,-9 -31,-26 -41,-35 -8,-11 -25,-32 -34,-42 -11,-17 -35,-52 -46,-69 -10,-53 -111,-147 -101,-37 2,114 -45,264 75,327 -404,139 -8,-309 -175,-502z"/>
  <path class="fil0" d="M4375 1693c55,49 92,424 -9,288 0,-96 4,-192 9,-288z"/>
  <path class="fil0" d="M3921 1722c167,194 -229,641 175,502 19,85 -303,73 -249,-32 119,-111 49,-314 74,-471z"/>
  <path class="fil0" d="M4021 1898c-10,-110 91,-16 101,37 -42,16 -76,4 -101,-37z"/>
  <path class="fil1" d="M4621 2188c69,-66 -117,-304 61,-249 -25,176 -21,354 -29,532 -134,25 -168,-137 -244,-214 17,1 50,4 66,5 100,18 229,289 146,-73z"/>
  <path class="fil1" d="M4168 2003c8,11 25,32 34,42 14,144 -71,356 109,423 -401,137 -45,-252 -143,-465z"/>
  <path class="fil0" d="M4244 2081c42,20 92,43 97,96 -50,27 -137,-42 -97,-96z"/>
  <path class="fil3" d="M4126 2926c35,-134 -103,-461 141,-385 3,152 3,304 2,456 1,237 -11,474 3,711 48,-13 95,-31 137,-57 40,-23 78,-49 115,-76 217,-113 427,-237 639,-357 165,-77 313,-187 478,-262 -68,174 -171,330 -258,494 -175,275 -316,569 -486,847 -7,11 -23,34 -30,46 400,-4 799,-8 1199,-3l11 34c-322,237 -981,-101 -1315,142 -74,241 -272,368 -485,476 -3,92 -9,277 -12,369 -5,294 16,589 -1,883 -45,3 -90,3 -135,0 -7,-271 -2,-542 -2,-812 1,-117 4,-233 -1,-350 -282,151 -563,304 -844,457 -175,99 -350,200 -531,290 216,-393 425,-791 673,-1165 17,-33 32,-67 44,-102 13,-36 23,-73 29,-112 -377,-13 -756,7 -1133,-6 0,-25 0,-76 -1,-101 409,-11 817,8 1226,-6 86,-265 296,-415 527,-541 17,-289 12,-578 8,-867z"/>
  <path class="fil1" d="M4372 3038c-31,-155 -31,-301 142,-250 0,61 1,184 2,245 -1,181 -4,362 9,542 -37,26 -76,53 -115,76 -44,-202 -32,-409 -38,-613z"/>
  <path class="fil0" d="M3376 3165c246,-90 490,-199 750,-239 4,289 9,579 -8,867 -232,126 -442,276 -527,541 -409,15 -818,-5 -1226,6 0,25 0,76 1,101 377,12 756,-7 1133,6 -6,38 -16,76 -29,112 -297,-5 -595,-23 -892,-5 2,93 -47,260 175,139 222,-16 457,40 673,-31 -248,374 -457,772 -673,1165 181,-90 355,-191 531,-290 -90,180 -203,348 -291,529 387,-195 766,-411 1136,-636 0,271 -5,542 2,812 45,3 90,3 135,0 17,-294 -4,-589 1,-883 84,-24 229,-122 109,142 37,324 -72,678 38,989 -176,-97 -452,43 -354,275 69,63 168,69 250,106l-31 9c-50,14 -101,28 -152,40 -120,-109 -73,69 -68,170 26,-328 -367,-231 -576,-343 -289,-179 -515,-439 -826,-585 -422,-311 -417,-866 -422,-1339 12,-41 24,-82 35,-123 131,-116 -17,-400 162,-404 366,-321 531,-852 945,-1132z"/>
  <path class="fil0" d="M4269 2997c41,-2 75,12 103,41 5,205 -6,411 38,613 -43,25 -89,44 -137,57 -14,-237 -2,-474 -3,-711z"/>
  <path class="fil0" d="M4516 3033c217,23 475,48 648,186 -213,119 -423,244 -639,357 -13,-180 -10,-362 -9,-542z"/>
  <path class="fil1" d="M5384 3451c179,-75 346,-176 513,-276 -81,194 -211,365 -300,556 -114,190 -207,398 -353,566 -116,7 -231,7 -347,0 170,-278 312,-572 486,-847z"/>
  <path class="fil0" d="M5245 4298c145,-168 238,-376 353,-566 119,236 393,356 470,609 -400,-5 -800,-1 -1199,3 7,-11 23,-34 30,-46 116,6 231,7 347,0z"/>
  <path class="fil3" d="M1484 4271c91,-332 720,-238 639,136 1,16 3,48 4,64 -15,129 -90,213 -220,232 -59,-17 -120,-19 -180,-7l-32 0c-203,8 -304,-262 -211,-424z"/>
  <path class="fil0" d="M6443 4141c-141,-93 401,-151 474,-41 -149,64 -355,-61 -474,41z"/>
  <path class="fil2" d="M4096 4124c147,-83 354,24 386,188 -2,54 -2,108 1,162 -25,197 -324,299 -470,156 -182,-112 -131,-458 82,-506z"/>
  <path class="fil3" d="M6443 4141c120,-102 326,23 474,-41 89,333 -394,-201 -250,240 120,49 193,-159 212,32l1 34c0,20 -1,60 -2,80 -14,-5 -41,-14 -55,-19 -29,-20 -59,-39 -89,-57 -139,-55 -114,239 1,222l32 8c108,54 122,-30 116,-124l30 11c-2,52 -2,103 3,154 -28,3 -84,9 -112,12 -17,0 -49,1 -66,1 -76,-16 -276,36 -272,-25 79,-136 115,-395 17,-510l-43 -18z"/>
  <path class="fil2" d="M1681 4576c-119,-64 -85,-530 171,-401 59,47 114,109 83,190 -120,22 -192,115 -254,211z"/>
  <path class="fil0" d="M6486 4159c98,115 61,374 -17,510 8,-170 25,-340 17,-510z"/>
  <path class="fil0" d="M4482 4312c65,2 65,157 1,162 -4,-54 -4,-108 -1,-162z"/>
  <path class="fil1" d="M1681 4576c63,-96 135,-190 254,-211 60,-12 65,167 10,150 12,-226 -181,-3 -191,104 -18,-11 -55,-32 -73,-43z"/>
  <path class="fil0" d="M6078 4374c76,28 62,109 61,175 -305,0 -610,11 -914,-2 -147,-59 -310,-96 -461,-31 334,-243 992,95 1315,-142z"/>
  <path class="fil1" d="M6880 4372c161,-46 248,-4 210,149 -44,-83 -114,-126 -210,-115l-1 -34z"/>
  <path class="fil2" d="M1755 4619c10,-108 203,-331 191,-104 14,114 -111,119 -191,104z"/>
  <path class="fil1" d="M2123 4407c142,10 163,178 146,294 -11,41 -23,82 -35,123 -152,188 -539,136 -538,-129l32 0c15,13 44,38 59,52 62,121 228,218 339,94 93,-101 78,-262 2,-370 -1,-16 -3,-48 -4,-64z"/>
  <path class="fil2" d="M6737 4632c-115,17 -140,-277 -1,-222 1,74 1,148 1,222z"/>
  <path class="fil1" d="M6736 4410c30,18 60,37 89,57 19,69 15,136 -55,173l-32 -8c0,-74 0,-148 -1,-222z"/>
  <path class="fil2" d="M2127 4471c76,108 91,270 -2,370 -111,123 -276,27 -339,-94 43,-8 83,-23 121,-44 129,-18 205,-103 220,-232z"/>
  <path class="fil1" d="M4763 4516c151,-65 314,-28 461,31 304,13 609,2 914,2 97,-20 210,22 178,140 -64,2 -192,7 -256,9 -336,-1 -672,-24 -1007,0 -122,236 -274,434 -533,531 -18,417 9,835 -11,1252 -16,5 -46,14 -61,19l-35 -10c-110,-310 -1,-665 -38,-989 120,-264 -25,-166 -109,-142 3,-92 10,-277 12,-369 213,-108 411,-235 485,-476z"/>
  <path class="fil0" d="M6824 4467c14,5 41,14 55,19l6 31c6,93 -8,178 -116,124 70,-37 74,-104 55,-173z"/>
  <path class="fil0" d="M6915 4527c40,12 56,44 48,98l-6 31c-10,7 -29,19 -39,26 -5,-51 -5,-103 -3,-154z"/>
  <path class="fil1" d="M2577 4555c297,-18 595,1 892,5 -12,35 -27,69 -44,102 -216,71 -451,16 -673,31 -222,121 -173,-46 -175,-139z"/>
  <path class="fil1" d="M6963 4625c101,-115 54,216 -6,31l6 -31z"/>
  <path class="fil0" d="M1728 4696c60,-12 121,-10 180,7 -38,22 -78,37 -121,44 -15,-13 -44,-39 -59,-52z"/>
  <path class="fil0" d="M5054 4698c334,-24 671,-1 1007,0 258,-65 177,214 218,346 61,376 -105,781 -371,1040 -446,208 -785,777 -1326,701 -27,-2 -81,-8 -108,-11 -102,-53 -308,-54 -277,-212 123,-54 175,47 247,105 20,-55 41,-114 5,-167 15,-5 46,-14 61,-19 20,-417 -7,-835 11,-1252 260,-97 411,-295 533,-531z"/>
  <path class="fil1" d="M6741 4694c16,0 49,-1 66,-1 3,168 186,266 285,100 94,284 -619,231 -351,-99z"/>
  <path class="fil1" d="M3283 5538c281,-153 562,-306 844,-457 6,117 2,233 1,350 -370,225 -749,441 -1136,636 88,-181 201,-349 291,-529z"/>
  <path class="fil3" d="M4059 6766c-98,-232 178,-372 354,-275l35 10c36,53 15,112 -5,167 -72,-58 -124,-159 -247,-105 -31,158 175,159 277,212 11,18 31,54 42,72 2,57 16,128 -38,167 -25,22 -51,44 -76,66 -17,4 -51,11 -68,14 -66,-5 -132,-5 -198,-1 -19,0 -58,-1 -77,-2 -4,-101 -51,-279 68,-170 -24,104 57,112 140,101 101,42 96,-119 44,-150 -83,-37 -181,-43 -250,-106z"/>
  <path class="fil1" d="M4473 6775c27,3 81,8 108,11 19,98 6,171 -66,62 -11,-18 -31,-54 -42,-72z"/>
  <path class="fil2" d="M4126 6921c51,-12 102,-26 152,-40 -5,47 -8,94 -12,141 -83,11 -163,3 -140,-101z"/>
  <path class="fil1" d="M4278 6881l31 -9c52,32 57,192 -44,150 4,-47 8,-94 12,-141z"/>
  <path class="fil1" d="M4401 7080c25,-22 51,-44 76,-66 184,-32 205,212 74,290 -110,84 -321,59 -287,-108 69,90 182,143 282,64 41,-109 -36,-187 -146,-180z"/>
  <path class="fil0" d="M4135 7093c66,-4 132,-4 198,1 -19,62 -180,62 -198,-1z"/>
 </g>
</svg>
